<svg xmlns="http://www.w3.org/2000/svg" xmlns:xlink="http://www.w3.org/1999/xlink" preserveAspectRatio="xMidYMid" width="21" height="18" viewBox="0 0 21 18">
  <defs>
    <style>

      .cls-2 {
        fill: #ff0000;
      }
    </style>
  </defs>
  <path d="M20.519,16.591 C20.519,16.591 20.350,16.789 20.350,16.789 C20.350,16.789 0.360,16.789 0.360,16.789 C0.360,16.789 0.191,16.591 0.191,16.591 C-0.104,16.250 -0.104,15.696 0.191,15.355 C0.191,15.355 9.688,0.260 9.688,0.260 C10.057,-0.081 10.654,-0.081 11.022,0.260 C11.022,0.260 20.519,15.355 20.519,15.355 C20.815,15.696 20.815,16.250 20.519,16.591 ZM18.778,14.605 C18.778,14.605 10.886,1.818 10.886,1.818 C10.595,1.549 10.124,1.549 9.833,1.818 C9.833,1.818 1.941,14.605 1.941,14.605 C1.696,14.875 1.696,15.312 1.941,15.581 C1.941,15.581 2.081,15.737 2.081,15.737 C2.081,15.737 18.638,15.737 18.638,15.737 C18.638,15.737 18.778,15.581 18.778,15.581 C19.022,15.312 19.022,14.875 18.778,14.605 ZM10.395,14.708 C10.042,14.708 9.752,14.612 9.523,14.419 C9.294,14.226 9.179,13.992 9.179,13.718 C9.179,13.431 9.295,13.196 9.526,13.013 C9.757,12.830 10.047,12.739 10.395,12.739 C10.747,12.739 11.035,12.831 11.260,13.016 C11.484,13.201 11.596,13.435 11.596,13.718 C11.596,14.004 11.485,14.241 11.263,14.428 C11.041,14.615 10.751,14.708 10.395,14.708 ZM9.529,11.597 C9.529,11.597 9.285,5.700 9.285,5.700 C9.285,5.700 11.478,5.700 11.478,5.700 C11.478,5.700 11.220,11.597 11.220,11.597 C11.220,11.597 9.529,11.597 9.529,11.597 Z" id="path-1" class="cls-2" fill-rule="evenodd"/>
</svg>
