<svg xmlns="http://www.w3.org/2000/svg" xmlns:xlink="http://www.w3.org/1999/xlink" preserveAspectRatio="xMidYMid" width="14" height="11" viewBox="0 0 14 11">
  <defs>
    <style>

      .cls-2 {
        fill: #d19834;
      }
    </style>
  </defs>
  <path d="M10.547,7.641 C10.547,7.641 10.547,9.008 10.547,9.008 C10.084,10.319 7.903,11.312 5.278,11.312 C2.651,11.312 0.470,10.319 0.008,9.008 C0.008,9.008 0.008,6.937 0.008,6.937 C0.470,8.249 2.651,9.242 5.278,9.242 C7.271,9.242 9.003,8.668 9.927,7.819 C9.236,7.989 8.475,8.094 7.662,8.094 C5.035,8.094 2.854,7.101 2.392,5.789 C2.392,5.789 2.392,3.911 2.392,3.911 C1.953,3.523 1.686,3.072 1.686,2.584 C1.686,1.165 3.827,0.014 6.469,0.014 C9.111,0.014 11.253,1.165 11.253,2.584 C11.253,4.004 9.111,5.155 6.469,5.155 C4.860,5.155 3.445,4.725 2.578,4.070 C3.276,5.202 5.278,6.024 7.662,6.024 C10.287,6.024 12.468,5.030 12.931,3.718 C12.931,3.718 12.931,5.789 12.931,5.789 C12.656,6.568 11.767,7.229 10.547,7.641 Z" id="path-1" class="cls-2" fill-rule="evenodd"/>
</svg>
