<svg xmlns="http://www.w3.org/2000/svg" xmlns:xlink="http://www.w3.org/1999/xlink" preserveAspectRatio="xMidYMid" width="42" height="42" viewBox="0 0 42 42">
  <defs>
    <style>

      .cls-2 {
        fill: #ffffff;
        filter: url(#outer-glow-1);
        opacity: 0.75;
      }
    </style>

    <filter id="outer-glow-1" filterUnits="userSpaceOnUse">
      <feGaussianBlur stdDeviation="4" in="SourceAlpha"/>
      <feComposite/>
      <feComposite/>
      <feComposite result="outerGlowBlur"/>
      <feFlood flood-color="#ffffff" flood-opacity="0.11"/>
      <feComposite operator="in" in2="outerGlowBlur"/>
      <feComposite in="SourceGraphic" result="outerGlow"/>
    </filter>
  </defs>
  <path d="M21.000,30.469 C15.796,30.469 11.578,26.229 11.578,21.000 C11.578,15.771 15.796,11.531 21.000,11.531 C26.203,11.531 30.422,15.771 30.422,21.000 C30.422,26.229 26.203,30.469 21.000,30.469 ZM20.998,12.761 C16.475,12.761 12.808,16.450 12.808,20.999 C12.808,25.549 16.475,29.237 20.998,29.237 C25.520,29.237 29.187,25.549 29.187,20.999 C29.187,16.450 25.520,12.761 20.998,12.761 ZM21.983,25.754 C21.741,25.969 21.425,26.077 21.036,26.077 C20.651,26.077 20.334,25.966 20.084,25.744 C19.834,25.521 19.709,25.252 19.709,24.935 C19.709,24.755 19.755,24.596 19.830,24.451 C19.830,24.435 19.820,24.422 19.820,24.405 C19.820,24.119 19.936,23.884 20.167,23.701 C20.398,23.518 20.687,23.426 21.035,23.426 C21.387,23.426 21.676,23.519 21.900,23.704 C22.125,23.889 22.237,24.123 22.237,24.405 C22.237,24.422 22.228,24.435 22.227,24.452 C22.302,24.597 22.347,24.756 22.347,24.935 C22.347,25.266 22.226,25.538 21.983,25.754 ZM20.091,22.564 C20.091,22.564 19.825,15.769 19.825,15.769 C19.825,15.769 22.218,15.769 22.218,15.769 C22.218,15.769 21.937,22.564 21.937,22.564 C21.937,22.564 20.091,22.564 20.091,22.564 Z" id="path-1" class="cls-2" fill-rule="evenodd"/>
</svg>
