<svg xmlns="http://www.w3.org/2000/svg" xmlns:xlink="http://www.w3.org/1999/xlink" preserveAspectRatio="xMidYMid" width="19" height="19" viewBox="0 0 19 19">
  <defs>
    <style>

      .cls-2 {
        fill: #ffffff;
      }
    </style>
  </defs>
  <path d="M9.422,18.937 C4.218,18.937 -0.000,14.698 -0.000,9.469 C-0.000,4.239 4.218,-0.000 9.422,-0.000 C14.625,-0.000 18.844,4.239 18.844,9.469 C18.844,14.698 14.625,18.937 9.422,18.937 ZM9.419,1.232 C4.896,1.232 1.230,4.920 1.230,9.469 C1.230,14.019 4.896,17.707 9.419,17.707 C13.942,17.707 17.609,14.019 17.609,9.469 C17.609,4.920 13.942,1.232 9.419,1.232 ZM9.458,6.056 C9.029,6.056 8.672,5.955 8.387,5.754 C8.101,5.553 7.959,5.295 7.959,4.980 C7.959,4.678 8.100,4.421 8.382,4.209 C8.665,3.997 9.023,3.891 9.458,3.891 C9.898,3.891 10.255,3.994 10.529,4.199 C10.803,4.405 10.941,4.665 10.941,4.980 C10.941,5.290 10.802,5.548 10.525,5.751 C10.248,5.954 9.892,6.056 9.458,6.056 ZM10.597,7.968 C10.597,7.968 10.794,13.857 10.794,13.857 C10.794,13.857 8.089,13.857 8.089,13.857 C8.089,13.857 8.269,7.968 8.269,7.968 C8.269,7.968 10.597,7.968 10.597,7.968 Z" id="path-1" class="cls-2" fill-rule="evenodd"/>
</svg>
