<svg xmlns="http://www.w3.org/2000/svg" xmlns:xlink="http://www.w3.org/1999/xlink" preserveAspectRatio="xMidYMid" width="25" height="20" viewBox="0 0 25 20">
  <defs>
    <style>

      .cls-2 {
        fill: #ffffff;
      }
    </style>
  </defs>
  <path d="M23.435,15.344 C23.435,15.344 24.509,19.027 24.509,19.027 C24.509,19.027 21.025,17.355 21.025,17.355 C20.151,17.806 19.156,18.125 18.071,18.246 C14.207,18.676 10.776,16.542 10.408,13.480 C10.040,10.419 12.874,7.588 16.738,7.157 C20.602,6.727 24.033,8.861 24.401,11.922 C24.526,12.957 24.284,13.965 23.762,14.863 C23.665,15.029 23.550,15.187 23.435,15.344 ZM23.058,12.072 C22.760,9.599 19.988,7.875 16.866,8.223 C13.744,8.570 11.455,10.857 11.752,13.331 C12.050,15.805 14.822,17.529 17.943,17.181 C20.011,16.951 21.713,15.870 22.541,14.448 C22.963,13.722 23.158,12.908 23.058,12.072 ZM17.081,5.516 C15.990,3.113 13.101,1.383 9.673,1.383 C5.313,1.383 1.778,4.164 1.778,7.594 C1.778,8.753 2.182,9.838 2.884,10.767 C3.084,11.031 3.315,11.279 3.561,11.516 C3.561,11.516 2.996,14.823 2.996,14.823 C2.996,14.823 5.930,13.054 5.930,13.054 C6.759,13.407 7.674,13.650 8.647,13.752 C8.613,14.080 8.594,14.412 8.594,14.750 C8.594,14.884 8.607,15.015 8.613,15.148 C7.671,15.067 6.770,14.882 5.930,14.604 C5.930,14.604 1.656,17.498 1.656,17.498 C1.656,17.498 2.214,12.410 2.214,12.410 C1.905,12.115 1.616,11.807 1.366,11.477 C0.507,10.341 0.013,9.014 0.013,7.595 C0.013,3.398 4.338,-0.005 9.673,-0.005 C14.158,-0.005 17.919,2.404 19.006,5.665 C18.477,5.561 17.933,5.500 17.375,5.500 C17.276,5.500 17.179,5.512 17.081,5.516 Z" id="path-1" class="cls-2" fill-rule="evenodd"/>
</svg>
