<?xml version="1.0" encoding="UTF-8" standalone="no"?>
<svg
   xmlns:dc="http://purl.org/dc/elements/1.1/"
   xmlns:cc="http://creativecommons.org/ns#"
   xmlns:rdf="http://www.w3.org/1999/02/22-rdf-syntax-ns#"
   xmlns:svg="http://www.w3.org/2000/svg"
   xmlns="http://www.w3.org/2000/svg"
   xmlns:sodipodi="http://sodipodi.sourceforge.net/DTD/sodipodi-0.dtd"
   xmlns:inkscape="http://www.inkscape.org/namespaces/inkscape"
   preserveAspectRatio="xMidYMid"
   width="27"
   height="20"
   viewBox="0 0 27 20"
   id="svg3734"
   version="1.1"
   inkscape:version="0.91 r13725"
   sodipodi:docname="message_empty.svg">
  <metadata
     id="metadata3743">
    <rdf:RDF>
      <cc:Work
         rdf:about="">
        <dc:format>image/svg+xml</dc:format>
        <dc:type
           rdf:resource="http://purl.org/dc/dcmitype/StillImage" />
        <dc:title></dc:title>
      </cc:Work>
    </rdf:RDF>
  </metadata>
  <sodipodi:namedview
     pagecolor="#ffffff"
     bordercolor="#666666"
     borderopacity="1"
     objecttolerance="10"
     gridtolerance="10"
     guidetolerance="10"
     inkscape:pageopacity="0"
     inkscape:pageshadow="2"
     inkscape:window-width="1376"
     inkscape:window-height="746"
     id="namedview3741"
     showgrid="false"
     inkscape:zoom="11.8"
     inkscape:cx="13.5"
     inkscape:cy="10"
     inkscape:window-x="0"
     inkscape:window-y="0"
     inkscape:window-maximized="0"
     inkscape:current-layer="svg3734" />
  <defs
     id="defs3736">
    <style
       id="style3738">

      .cls-2 {
        fill: #ffffff;
      }
    </style>
  </defs>
  <path
     d="M22.656,13.000 C20.171,13.000 18.156,10.985 18.156,8.500 C18.156,6.015 20.171,4.000 22.656,4.000 C25.142,4.000 27.156,6.015 27.156,8.500 C27.156,10.985 25.142,13.000 22.656,13.000 ZM24.448,6.022 C24.448,6.022 22.659,7.810 22.659,7.810 C22.659,7.810 20.873,6.025 20.873,6.025 C20.607,6.218 20.373,6.451 20.181,6.717 C20.181,6.717 21.967,8.502 21.967,8.502 C21.967,8.502 20.181,10.286 20.181,10.286 C20.374,10.552 20.607,10.785 20.873,10.978 C20.873,10.978 22.659,9.193 22.659,9.193 C22.659,9.193 24.448,10.981 24.448,10.981 C24.715,10.789 24.948,10.556 25.141,10.290 C25.141,10.290 23.351,8.502 23.351,8.502 C23.351,8.502 25.141,6.714 25.141,6.714 C24.948,6.448 24.715,6.215 24.448,6.022 ZM17.375,5.500 C17.276,5.500 17.179,5.512 17.081,5.516 C15.990,3.113 13.101,1.383 9.673,1.383 C5.313,1.383 1.778,4.164 1.778,7.594 C1.778,8.753 2.182,9.838 2.884,10.767 C3.084,11.031 3.315,11.279 3.561,11.516 C3.561,11.516 2.996,14.823 2.996,14.823 C2.996,14.823 5.930,13.054 5.930,13.054 C6.759,13.407 7.674,13.650 8.647,13.751 C8.613,14.080 8.594,14.412 8.594,14.750 C8.594,14.884 8.607,15.015 8.613,15.148 C7.671,15.067 6.770,14.882 5.930,14.604 C5.930,14.604 1.656,17.498 1.656,17.498 C1.656,17.498 2.214,12.410 2.214,12.410 C1.905,12.115 1.616,11.807 1.366,11.477 C0.507,10.341 0.013,9.013 0.013,7.595 C0.013,3.398 4.338,-0.005 9.673,-0.005 C13.745,-0.005 17.196,1.989 18.615,4.795 C18.403,5.026 18.206,5.270 18.036,5.535 C17.817,5.516 17.598,5.500 17.375,5.500 ZM16.738,7.157 C16.944,7.134 17.143,7.147 17.347,7.138 C17.258,7.485 17.205,7.843 17.185,8.213 C17.078,8.220 16.974,8.210 16.866,8.223 C13.744,8.570 11.455,10.857 11.752,13.331 C12.050,15.805 14.822,17.529 17.943,17.181 C20.011,16.951 21.713,15.870 22.541,14.448 C22.628,14.299 22.698,14.145 22.765,13.989 C23.277,13.979 23.763,13.884 24.232,13.743 C24.118,14.129 23.969,14.506 23.762,14.863 C23.665,15.029 23.550,15.187 23.435,15.344 C23.435,15.344 24.509,19.027 24.509,19.027 C24.509,19.027 21.025,17.355 21.025,17.355 C20.151,17.806 19.156,18.125 18.071,18.246 C14.207,18.676 10.776,16.542 10.408,13.480 C10.040,10.419 12.874,7.588 16.738,7.157 Z"
     id="path-1"
     class="cls-2"
     fill-rule="evenodd" />
</svg>
