<svg xmlns="http://www.w3.org/2000/svg" xmlns:xlink="http://www.w3.org/1999/xlink" preserveAspectRatio="xMidYMid" width="35" height="39" viewBox="0 0 35 39">
  <defs>
    <style>

      .cls-2 {
        fill: #e6e6e6;
        filter: url(#outer-glow-1);
      }
    </style>

    <filter id="outer-glow-1" filterUnits="userSpaceOnUse">
      <feGaussianBlur stdDeviation="3" in="SourceAlpha"/>
      <feComposite/>
      <feComposite/>
      <feComposite result="outerGlowBlur"/>
      <feFlood flood-color="#ffffff" flood-opacity="0.15"/>
      <feComposite operator="in" in2="outerGlowBlur"/>
      <feComposite in="SourceGraphic" result="outerGlow"/>
    </filter>
  </defs>
  <path d="M26.232,23.956 C26.232,23.946 26.232,23.936 26.229,23.927 C26.229,23.917 26.227,23.910 26.225,23.900 C26.220,23.866 26.213,23.833 26.203,23.801 C26.203,23.797 26.201,23.789 26.196,23.782 C26.187,23.751 26.175,23.720 26.161,23.691 C26.148,23.664 26.132,23.635 26.113,23.609 C26.101,23.590 26.089,23.573 26.075,23.556 C26.060,23.537 26.044,23.517 26.025,23.498 C26.025,23.498 23.832,21.275 23.832,21.275 C23.832,21.275 23.832,16.993 23.832,16.993 C23.832,13.643 21.326,10.876 18.114,10.514 C18.114,10.514 18.114,9.300 18.114,9.300 C18.115,8.901 17.794,8.578 17.402,8.578 C17.007,8.578 16.689,8.901 16.689,9.300 C16.689,9.300 16.689,10.514 16.689,10.514 C13.475,10.875 10.971,13.643 10.971,16.993 C10.971,16.993 10.971,21.475 10.971,21.475 C10.971,21.475 8.976,23.498 8.976,23.498 C8.919,23.556 8.871,23.623 8.838,23.693 C8.831,23.708 8.824,23.722 8.819,23.736 C8.802,23.780 8.788,23.826 8.779,23.871 C8.771,23.917 8.767,23.963 8.767,24.009 C8.767,24.009 8.767,26.964 8.767,26.964 C8.767,27.364 9.085,27.686 9.479,27.686 C9.479,27.686 14.071,27.686 14.071,27.686 C14.399,29.244 15.768,30.415 17.402,30.415 C19.034,30.415 20.402,29.244 20.730,27.686 C20.730,27.686 25.522,27.686 25.522,27.686 C25.916,27.686 26.234,27.364 26.234,26.964 C26.234,26.964 26.234,24.009 26.234,24.009 C26.234,23.992 26.234,23.973 26.232,23.956 ZM17.403,29.145 C16.331,29.145 15.413,28.463 15.049,27.508 C15.049,27.508 19.757,27.508 19.757,27.508 C19.390,28.463 18.472,29.145 17.403,29.145 Z" id="path-1" class="cls-2" fill-rule="evenodd"/>
</svg>
