<svg xmlns="http://www.w3.org/2000/svg" xmlns:xlink="http://www.w3.org/1999/xlink" preserveAspectRatio="xMidYMid" width="24" height="17" viewBox="0 0 24 17">
  <defs>
    <style>

      .cls-2 {
        fill: #ffffff;
        stroke: #ffffff;
      }
    </style>
  </defs>
  <path d="M23.898,15.156 C23.163,16.220 19.289,16.922 16.168,16.922 C13.048,16.922 9.174,16.220 8.439,15.155 C8.242,14.870 8.198,14.522 8.320,14.201 C9.036,12.314 10.248,11.872 11.223,11.698 C12.037,11.552 13.049,11.249 13.410,11.053 C13.424,10.882 13.430,10.558 13.400,10.038 C13.371,10.002 13.352,9.967 13.325,9.930 C13.324,9.929 13.320,9.923 13.319,9.923 C13.319,9.923 13.319,9.922 13.319,9.922 C12.847,9.282 12.617,8.684 12.515,8.277 C12.203,8.058 11.878,7.631 11.685,6.804 C11.574,6.326 11.491,5.721 11.835,5.288 C11.842,5.277 11.850,5.267 11.859,5.257 C11.552,2.223 13.496,0.690 14.639,0.291 C14.639,0.291 14.655,0.286 14.655,0.286 C14.655,0.286 14.671,0.281 14.671,0.281 C15.101,0.151 15.515,0.085 15.902,0.085 C15.988,0.085 16.074,0.089 16.158,0.096 C16.241,0.089 16.325,0.085 16.416,0.085 C16.802,0.085 17.217,0.151 17.647,0.281 C17.647,0.281 17.663,0.286 17.663,0.286 C17.663,0.286 17.679,0.291 17.679,0.291 C18.822,0.690 20.767,2.223 20.459,5.257 C20.467,5.267 20.475,5.277 20.483,5.288 C20.827,5.721 20.744,6.326 20.633,6.805 C20.441,7.631 20.114,8.058 19.803,8.277 C19.700,8.687 19.470,9.293 18.988,9.939 C18.988,9.939 18.999,9.948 18.999,9.948 C18.979,9.972 18.959,9.991 18.939,10.014 C18.906,10.556 18.913,10.888 18.924,11.051 C19.284,11.249 20.299,11.552 21.113,11.698 C22.089,11.873 23.301,12.314 24.017,14.202 C24.138,14.522 24.095,14.870 23.898,15.156 ZM19.512,6.722 C19.680,6.002 19.505,5.888 19.376,5.888 C19.317,5.888 19.267,5.912 19.267,5.912 C19.905,2.575 17.300,1.479 17.300,1.479 C16.941,1.371 16.641,1.332 16.392,1.332 C16.309,1.332 16.231,1.336 16.159,1.344 C16.088,1.336 16.011,1.332 15.927,1.332 C15.679,1.332 15.378,1.371 15.019,1.479 C15.019,1.479 12.414,2.575 13.052,5.912 C13.052,5.912 13.003,5.888 12.943,5.888 C12.815,5.888 12.639,6.002 12.807,6.722 C13.022,7.648 13.388,7.706 13.475,7.706 C13.487,7.706 13.493,7.705 13.493,7.705 C13.493,7.705 13.542,8.586 14.357,9.532 C14.357,9.536 14.358,9.544 14.358,9.549 C14.669,9.876 15.294,10.415 16.086,10.448 C16.722,10.472 17.356,10.165 17.979,9.532 C17.979,9.525 17.980,9.517 17.980,9.510 C18.779,8.573 18.825,7.705 18.825,7.705 C18.825,7.705 18.832,7.706 18.844,7.706 C18.930,7.706 19.297,7.649 19.512,6.722 ZM20.426,12.469 C19.752,12.349 18.116,11.721 17.972,11.336 C17.927,11.218 17.911,10.995 17.909,10.745 C17.347,11.174 16.763,11.396 16.164,11.396 C16.128,11.396 16.091,11.395 16.055,11.393 C15.392,11.364 14.840,11.072 14.428,10.762 C14.425,11.005 14.409,11.220 14.365,11.336 C14.221,11.721 12.664,12.368 11.953,12.495 C11.241,12.622 10.615,12.635 10.085,14.030 C9.821,14.728 12.885,15.712 16.169,15.712 C19.452,15.712 22.673,14.728 22.408,14.030 C21.879,12.635 21.099,12.590 20.426,12.469 ZM9.650,7.750 C9.565,8.091 9.375,8.595 8.978,9.132 C8.978,9.132 8.986,9.140 8.986,9.140 C8.970,9.160 8.953,9.176 8.937,9.194 C8.914,9.589 8.916,9.828 8.923,9.978 C8.374,9.938 8.439,10.291 8.698,10.779 C8.462,10.675 8.282,10.565 8.242,10.456 C8.202,10.351 8.188,10.153 8.186,9.931 C7.689,10.312 7.175,10.510 6.646,10.510 C6.614,10.510 6.582,10.509 6.550,10.507 C5.965,10.481 5.478,10.221 5.114,9.946 C5.112,10.162 5.098,10.354 5.059,10.456 C4.932,10.799 3.310,11.124 2.682,11.236 C2.054,11.349 1.557,11.612 1.089,12.852 C0.871,13.433 3.396,14.083 6.096,14.165 C6.001,14.411 5.920,14.662 5.854,14.919 C3.454,14.816 0.815,14.268 0.270,13.471 C0.107,13.234 0.071,12.944 0.171,12.677 C0.762,11.108 1.763,10.740 2.568,10.595 C3.240,10.474 4.075,10.222 4.373,10.059 C4.385,9.916 4.390,9.647 4.365,9.215 C4.341,9.184 4.325,9.155 4.303,9.125 C4.302,9.124 4.299,9.119 4.298,9.119 C4.298,9.119 4.298,9.118 4.298,9.118 C3.908,8.586 3.719,8.088 3.634,7.750 C3.377,7.568 3.108,7.212 2.950,6.525 C2.858,6.127 2.789,5.623 3.073,5.263 C3.079,5.255 3.086,5.246 3.093,5.238 C2.839,2.714 4.444,1.439 5.388,1.107 C5.388,1.107 5.401,1.103 5.401,1.103 C5.401,1.103 5.414,1.098 5.414,1.098 C5.769,0.991 6.111,0.936 6.430,0.936 C6.501,0.936 6.572,0.939 6.642,0.944 C6.710,0.939 6.780,0.936 6.855,0.936 C7.173,0.936 7.515,0.991 7.871,1.099 C7.871,1.099 7.884,1.102 7.884,1.102 C7.884,1.102 7.897,1.107 7.897,1.107 C8.840,1.439 10.446,2.714 10.192,5.238 C10.199,5.246 10.205,5.255 10.212,5.263 C10.496,5.624 10.427,6.127 10.335,6.525 C10.177,7.212 9.907,7.568 9.650,7.750 ZM9.480,5.612 C9.428,5.612 9.384,5.634 9.384,5.634 C9.947,2.666 7.649,1.858 7.649,1.858 C7.332,1.762 7.067,1.728 6.847,1.728 C6.774,1.728 6.705,1.731 6.642,1.739 C6.579,1.731 6.511,1.728 6.437,1.728 C6.218,1.728 5.952,1.762 5.636,1.858 C5.636,1.858 3.337,2.666 3.900,5.634 C3.900,5.634 3.857,5.612 3.804,5.612 C3.691,5.612 3.536,5.714 3.684,6.354 C3.873,7.178 4.197,7.228 4.273,7.228 C4.284,7.228 4.289,7.227 4.289,7.227 C4.289,7.227 4.332,8.012 5.052,8.852 C5.052,8.856 5.052,8.863 5.053,8.867 C5.327,9.158 5.879,9.638 6.577,9.667 C7.138,9.688 7.698,9.416 8.247,8.853 C8.247,8.846 8.248,8.839 8.248,8.833 C8.954,8.000 8.994,7.227 8.994,7.227 C8.994,7.227 9.000,7.228 9.011,7.228 C9.087,7.228 9.411,7.178 9.600,6.354 C9.749,5.714 9.594,5.612 9.480,5.612 ZM9.131,9.991 C9.078,9.980 9.059,9.990 9.013,9.984 C9.033,9.973 9.065,9.969 9.131,9.991 ZM8.925,10.057 C8.924,10.040 8.924,10.000 8.923,9.978 C8.954,9.981 8.978,9.979 9.013,9.984 C8.962,10.012 9.006,10.102 8.925,10.057 Z" id="path-1" class="cls-2" fill-rule="evenodd"/>
</svg>
