<svg xmlns="http://www.w3.org/2000/svg" xmlns:xlink="http://www.w3.org/1999/xlink" preserveAspectRatio="xMidYMid" width="39" height="39" viewBox="0 0 39 39">
  <defs>
    <style>

      .cls-2 {
        fill: #ffffff;
        filter: url(#outer-glow-1);
      }
    </style>

    <filter id="outer-glow-1" filterUnits="userSpaceOnUse">
      <feGaussianBlur stdDeviation="3" in="SourceAlpha"/>
      <feComposite/>
      <feComposite/>
      <feComposite result="outerGlowBlur"/>
      <feFlood flood-color="#ffffff" flood-opacity="0.15"/>
      <feComposite operator="in" in2="outerGlowBlur"/>
      <feComposite in="SourceGraphic" result="outerGlow"/>
    </filter>
  </defs>
  <path d="M11.172,19.498 C11.172,14.898 14.900,11.169 19.500,11.169 C24.100,11.169 27.828,14.898 27.828,19.498 C27.828,22.565 26.170,25.245 23.700,26.690 C24.213,24.883 24.437,23.024 24.353,20.892 C24.895,21.044 25.186,21.139 25.727,21.291 C25.106,19.730 24.430,18.301 23.551,16.855 C22.766,18.344 21.725,19.739 20.674,20.835 C20.674,20.835 22.401,20.728 22.401,20.728 C20.917,23.381 18.820,24.663 16.177,25.042 C15.561,22.080 16.005,17.189 19.380,14.903 C19.380,14.903 19.716,16.544 19.716,16.544 C20.380,15.480 21.677,14.099 22.656,13.127 C21.132,12.519 19.351,12.327 17.637,12.647 C17.924,12.884 18.264,13.194 18.552,13.431 C14.739,15.035 12.641,17.674 11.266,20.756 C11.204,20.346 11.172,19.926 11.172,19.498 C11.172,19.498 11.172,19.498 11.172,19.498 ZM19.500,29.780 C25.179,29.780 29.782,25.177 29.782,19.498 C29.782,13.819 25.179,9.216 19.500,9.216 C13.822,9.216 9.218,13.819 9.218,19.498 C9.218,25.177 13.822,29.780 19.500,29.780 C19.500,29.780 19.500,29.780 19.500,29.780 Z" id="path-1" class="cls-2" fill-rule="evenodd"/>
</svg>
