<svg xmlns="http://www.w3.org/2000/svg" xmlns:xlink="http://www.w3.org/1999/xlink" preserveAspectRatio="xMidYMid" width="30" height="33" viewBox="0 0 30 33">
  <defs>
    <style>

      .cls-2 {
        fill: #ffffff;
        filter: url(#outer-glow-1);
        opacity: 0.92;
      }
    </style>

    <filter id="outer-glow-1" filterUnits="userSpaceOnUse">
      <feGaussianBlur stdDeviation="3" in="SourceAlpha"/>
      <feComposite/>
      <feComposite/>
      <feComposite result="outerGlowBlur"/>
      <feFlood flood-color="#ffffff" flood-opacity="0.15"/>
      <feComposite operator="in" in2="outerGlowBlur"/>
      <feComposite in="SourceGraphic" result="outerGlow"/>
    </filter>
  </defs>
  <path d="M15.001,24.186 C15.001,24.186 8.770,18.532 8.770,18.532 C8.770,18.532 8.770,10.205 8.770,10.205 C8.770,10.205 12.280,8.817 12.280,8.817 C12.280,8.817 17.722,8.817 17.722,8.817 C17.722,8.817 21.223,10.205 21.223,10.205 C21.223,10.205 21.223,18.532 21.223,18.532 C21.223,18.532 15.001,24.186 15.001,24.186 ZM20.516,10.518 C20.516,10.518 17.526,9.515 17.526,9.515 C17.526,9.515 12.476,9.515 12.476,9.515 C12.476,9.515 9.418,10.518 9.418,10.518 C9.418,10.518 9.468,18.179 9.468,18.179 C9.468,18.179 14.989,23.043 14.989,23.043 C14.989,23.043 20.516,18.179 20.516,18.179 C20.516,18.179 20.516,10.518 20.516,10.518 ZM13.851,21.254 C13.851,21.254 13.851,18.202 13.851,18.202 C13.851,18.202 12.308,19.711 12.308,19.711 C12.308,19.711 10.591,18.067 10.591,18.067 C10.591,18.067 10.591,13.335 10.591,13.335 C10.591,13.335 12.564,13.335 12.564,13.335 C12.564,13.335 12.564,17.128 12.564,17.128 C12.564,17.128 13.818,18.135 13.818,18.135 C13.818,18.135 13.818,12.337 13.818,12.337 C13.818,12.337 10.465,12.337 10.465,12.337 C10.465,12.337 12.677,10.441 12.677,10.441 C12.677,10.441 17.325,10.441 17.325,10.441 C17.325,10.441 19.537,12.337 19.537,12.337 C19.537,12.337 16.185,12.337 16.185,12.337 C16.185,12.337 16.185,18.135 16.185,18.135 C16.185,18.135 17.438,17.128 17.438,17.128 C17.438,17.128 17.438,13.335 17.438,13.335 C17.438,13.335 19.445,13.335 19.445,13.335 C19.445,13.335 19.445,18.067 19.445,18.067 C19.445,18.067 17.694,19.711 17.694,19.711 C17.694,19.711 16.151,18.202 16.151,18.202 C16.151,18.202 16.151,21.254 16.151,21.254 C16.151,21.254 14.977,22.316 14.977,22.316 C14.977,22.316 13.851,21.254 13.851,21.254 Z" id="path-1" class="cls-2" fill-rule="evenodd"/>
</svg>
