<svg xmlns="http://www.w3.org/2000/svg" xmlns:xlink="http://www.w3.org/1999/xlink" preserveAspectRatio="xMidYMid" width="31" height="35" viewBox="0 0 31 35">
  <defs>
    <style>

      .cls-2 {
        fill: #ffffff;
        filter: url(#outer-glow-1);
      }
    </style>

    <filter id="outer-glow-1" filterUnits="userSpaceOnUse">
      <feGaussianBlur stdDeviation="3" in="SourceAlpha"/>
      <feComposite/>
      <feComposite/>
      <feComposite result="outerGlowBlur"/>
      <feFlood flood-color="#ffffff" flood-opacity="0.15"/>
      <feComposite operator="in" in2="outerGlowBlur"/>
      <feComposite in="SourceGraphic" result="outerGlow"/>
    </filter>
  </defs>
  <path d="M21.868,19.917 C21.868,19.917 15.293,26.279 15.293,26.279 C15.293,26.279 8.965,19.672 8.965,19.672 C8.965,19.672 9.120,11.484 9.120,11.484 C9.120,11.484 15.627,8.720 15.627,8.720 C15.627,8.720 22.023,11.730 22.023,11.730 C22.023,11.730 21.868,19.917 21.868,19.917 ZM15.612,9.523 C15.612,9.523 9.804,11.926 9.804,11.926 C9.804,11.926 9.662,19.366 9.662,19.366 C9.662,19.366 15.313,25.265 15.313,25.265 C15.313,25.265 21.183,19.585 21.183,19.585 C21.183,19.585 21.324,12.145 21.324,12.145 C21.324,12.145 15.612,9.523 15.612,9.523 ZM20.219,19.066 C20.219,19.066 15.414,23.758 15.414,23.758 C15.414,23.758 10.791,18.887 10.791,18.887 C10.791,18.887 10.906,12.849 10.906,12.849 C10.906,12.849 14.383,11.357 14.383,11.357 C14.383,11.357 14.489,10.999 14.489,10.999 C14.489,10.999 15.592,10.531 15.592,10.531 C15.592,10.531 16.646,11.015 16.646,11.015 C16.646,11.015 16.567,11.240 16.567,11.240 C16.567,11.240 20.333,13.028 20.333,13.028 C20.333,13.028 20.219,19.066 20.219,19.066 ZM17.478,14.373 C17.478,14.373 15.421,15.076 15.421,15.076 C15.421,15.076 16.497,12.099 16.497,12.099 C16.497,12.099 15.513,11.660 15.513,11.660 C15.513,11.660 14.484,12.083 14.484,12.083 C14.484,12.083 12.953,17.123 12.953,17.123 C12.953,17.123 15.404,16.207 15.404,16.207 C15.404,16.207 14.239,20.274 14.239,20.274 C14.239,20.274 16.198,19.413 16.198,19.413 C16.198,19.413 15.288,23.510 15.288,23.510 C15.288,23.510 17.958,17.897 17.958,17.897 C17.958,17.897 15.928,18.798 15.928,18.798 C15.928,18.798 17.478,14.373 17.478,14.373 Z" id="path-1" class="cls-2" fill-rule="evenodd"/>
</svg>
