<svg xmlns="http://www.w3.org/2000/svg" xmlns:xlink="http://www.w3.org/1999/xlink" preserveAspectRatio="xMidYMid" width="30" height="34" viewBox="0 0 30 34">
  <defs>
    <style>

      .cls-2 {
        fill: #ffffff;
        filter: url(#outer-glow-1);
      }
    </style>

    <filter id="outer-glow-1" filterUnits="userSpaceOnUse">
      <feGaussianBlur stdDeviation="3" in="SourceAlpha"/>
      <feComposite/>
      <feComposite/>
      <feComposite result="outerGlowBlur"/>
      <feFlood flood-color="#ffffff" flood-opacity="0.15"/>
      <feComposite operator="in" in2="outerGlowBlur"/>
      <feComposite in="SourceGraphic" result="outerGlow"/>
    </filter>
  </defs>
  <path d="M20.923,21.037 C20.923,21.037 14.991,24.780 14.991,24.780 C14.991,24.780 9.060,20.704 9.060,20.704 C9.060,20.704 9.027,10.826 9.027,10.826 C9.027,10.826 11.944,9.235 11.944,9.235 C11.944,9.235 18.039,9.235 18.039,9.235 C18.039,9.235 20.956,11.159 20.956,11.159 C20.956,11.159 20.923,21.037 20.923,21.037 ZM17.864,9.734 C17.864,9.734 12.119,9.734 12.119,9.734 C12.119,9.734 9.419,11.162 9.419,11.162 C9.419,11.162 9.419,20.342 9.419,20.342 C9.419,20.342 14.991,24.117 14.991,24.117 C14.991,24.117 20.564,20.675 20.564,20.675 C20.564,20.675 20.564,11.495 20.564,11.495 C20.564,11.495 17.864,9.734 17.864,9.734 ZM14.977,22.325 C14.977,22.325 10.512,19.753 10.512,19.753 C10.512,19.753 10.514,19.753 10.514,19.753 C10.514,19.753 10.512,19.753 10.512,19.753 C10.512,19.753 10.512,15.104 10.512,15.104 C10.512,15.104 12.490,16.214 12.490,16.214 C12.490,16.214 12.490,18.491 12.490,18.491 C12.490,18.491 13.724,19.273 13.724,19.273 C13.724,19.273 13.724,15.459 13.724,15.459 C13.724,15.459 13.381,15.459 13.381,15.459 C13.381,15.459 11.546,14.446 11.546,14.446 C11.546,14.446 11.546,13.703 11.546,13.703 C11.546,13.703 13.816,13.703 13.816,13.703 C13.816,13.703 13.816,12.648 13.816,12.648 C13.816,12.648 12.737,12.012 12.737,12.012 C12.737,12.012 12.737,10.969 12.737,10.969 C12.737,10.969 14.977,10.969 14.977,10.969 C14.977,10.969 17.217,10.969 17.217,10.969 C17.217,10.969 17.217,12.012 17.217,12.012 C17.217,12.012 16.137,12.648 16.137,12.648 C16.137,12.648 16.137,13.703 16.137,13.703 C16.137,13.703 18.408,13.703 18.408,13.703 C18.408,13.703 18.408,14.446 18.408,14.446 C18.408,14.446 16.573,15.459 16.573,15.459 C16.573,15.459 16.229,15.459 16.229,15.459 C16.229,15.459 16.229,19.273 16.229,19.273 C16.229,19.273 17.463,18.491 17.463,18.491 C17.463,18.491 17.463,16.214 17.463,16.214 C17.463,16.214 19.442,15.104 19.442,15.104 C19.442,15.104 19.442,19.753 19.442,19.753 C19.442,19.753 19.440,19.753 19.440,19.753 C19.440,19.753 19.442,19.753 19.442,19.753 C19.442,19.753 14.977,22.325 14.977,22.325 Z" id="path-1" class="cls-2" fill-rule="evenodd"/>
</svg>
