<svg xmlns="http://www.w3.org/2000/svg" xmlns:xlink="http://www.w3.org/1999/xlink" preserveAspectRatio="xMidYMid" width="46" height="33" viewBox="0 0 46 33">
  <defs>
    <style>

      .cls-2 {
        fill: #ffffff;
        filter: url(#outer-glow-1);
        opacity: 0.92;
      }
    </style>

    <filter id="outer-glow-1" filterUnits="userSpaceOnUse">
      <feGaussianBlur stdDeviation="3" in="SourceAlpha"/>
      <feComposite/>
      <feComposite/>
      <feComposite result="outerGlowBlur"/>
      <feFlood flood-color="#ffffff" flood-opacity="0.15"/>
      <feComposite operator="in" in2="outerGlowBlur"/>
      <feComposite in="SourceGraphic" result="outerGlow"/>
    </filter>
  </defs>
  <path d="M28.962,9.776 C28.962,9.776 28.962,10.987 28.962,10.987 C28.962,10.987 28.439,10.978 28.439,10.978 C28.439,10.978 28.417,10.423 28.420,10.288 C26.605,10.025 24.818,9.763 23.004,9.500 C21.186,9.763 19.397,10.025 17.579,10.288 C17.579,10.425 17.579,10.987 17.579,10.987 C17.579,10.987 17.028,10.978 17.028,10.978 C17.028,10.978 17.037,9.776 17.037,9.776 C17.037,9.776 21.009,9.204 22.995,8.919 C24.984,9.204 28.962,9.776 28.962,9.776 ZM18.330,12.886 C18.330,12.886 11.624,12.886 11.624,12.886 C11.624,12.886 9.258,10.853 9.258,10.853 C9.258,10.853 20.621,10.853 20.621,10.853 C20.621,10.853 20.621,16.501 20.621,16.501 C20.621,16.501 21.812,17.685 21.812,17.685 C21.812,17.685 21.812,11.272 21.812,11.272 C21.812,11.272 22.979,10.392 22.979,10.392 C22.979,10.392 24.187,11.272 24.187,11.272 C24.187,11.272 24.187,15.547 24.187,17.685 C24.581,17.287 25.370,16.493 25.370,16.493 C25.370,16.493 25.379,10.853 25.379,10.853 C25.379,10.853 36.741,10.853 36.741,10.853 C36.741,10.853 34.367,12.961 34.367,12.961 C34.367,12.961 27.660,12.894 27.660,12.894 C27.660,12.894 27.660,17.658 27.660,17.658 C27.660,17.658 25.925,19.330 25.925,19.330 C25.925,19.330 25.942,19.442 25.936,19.442 C25.353,18.859 24.187,17.693 24.187,17.693 C24.187,17.693 24.187,21.208 24.187,21.208 C24.187,21.208 22.987,22.391 22.987,22.391 C22.987,22.391 21.812,21.208 21.812,21.208 C21.812,21.208 21.804,17.693 21.804,17.693 C21.804,17.693 20.130,19.386 20.130,19.386 C20.130,19.386 18.330,17.586 18.330,17.586 C18.330,17.586 18.330,12.886 18.330,12.886 ZM16.454,14.028 C16.454,14.028 16.445,16.570 16.445,16.570 C16.445,16.570 15.005,16.570 15.005,16.570 C15.005,16.570 12.630,14.028 12.630,14.028 C12.630,14.028 16.454,14.028 16.454,14.028 ZM16.812,14.195 C16.812,14.195 17.569,14.195 17.569,14.195 C17.569,14.195 17.580,17.916 17.580,17.916 C17.580,17.916 22.995,23.266 22.995,23.266 C22.995,23.266 28.420,17.899 28.420,17.899 C28.420,17.899 28.430,14.195 28.430,14.195 C28.430,14.195 29.179,14.195 29.179,14.195 C29.179,14.195 29.179,18.062 29.179,18.062 C29.179,18.062 23.004,24.070 23.004,24.070 C23.004,24.070 16.820,18.062 16.820,18.062 C16.820,18.062 16.812,14.195 16.812,14.195 ZM29.545,14.028 C29.545,14.028 33.360,14.028 33.360,14.028 C33.360,14.028 30.985,16.570 30.985,16.570 C30.985,16.570 29.545,16.570 29.545,16.570 C29.545,16.570 29.545,14.028 29.545,14.028 Z" id="path-1" class="cls-2" fill-rule="evenodd"/>
</svg>
