<?xml version="1.0" encoding="utf-8"?>
<!-- Generator: Adobe Illustrator 18.0.0, SVG Export Plug-In . SVG Version: 6.00 Build 0)  -->
<!DOCTYPE svg PUBLIC "-//W3C//DTD SVG 1.1//EN" "http://www.w3.org/Graphics/SVG/1.1/DTD/svg11.dtd">
<svg version="1.1" id="Layer_1" xmlns="http://www.w3.org/2000/svg" xmlns:xlink="http://www.w3.org/1999/xlink" x="0px" y="0px"
	 viewBox="0 0 14 13" enable-background="new 0 0 14 13" xml:space="preserve">
<path fill-rule="evenodd" clip-rule="evenodd" fill="#FFFFFF" d="M8.6,9.3C8.1,9.2,7.4,8.9,7.2,8.8c0-0.1,0-0.3,0-0.7c0,0,0,0,0-0.1
	c0,0,0,0,0,0v0c0.3-0.4,0.5-0.8,0.5-1.1C7.6,6.8,7.4,6.6,7.2,6.4c0,0-0.1,0-0.1,0c0,0,0,0,0,0s0,0.6-0.6,1.3c0,0,0,0,0,0
	C6.3,8,5.9,8.4,5.4,8.4C5,8.4,4.6,8.2,4.2,7.8c0,0,0,0,0,0C3.6,7.1,3.6,6.5,3.6,6.5s0,0,0,0c-0.1,0-0.3,0-0.4-0.7
	C3,5.3,3.1,5.2,3.2,5.2c0,0,0.1,0,0.1,0C2.9,2.9,4.6,2.2,4.6,2.2C4.8,2.1,5,2.1,5.2,2.1c0.1,0,0.1,0,0.2,0c0,0,0.1,0,0.2,0
	c0.2,0,0.4,0,0.6,0.1c0,0,0.1,0,0.2,0.1C6.4,2,6.6,1.8,6.7,1.5C6.6,1.4,6.5,1.4,6.4,1.3l0,0l0,0C6.1,1.2,5.8,1.2,5.5,1.2
	c-0.1,0-0.1,0-0.2,0c-0.1,0-0.1,0-0.2,0c-0.3,0-0.5,0-0.8,0.1l0,0l0,0c-0.8,0.3-2,1.3-1.8,3.4c0,0,0,0,0,0C2.3,5.1,2.3,5.5,2.4,5.9
	c0.1,0.6,0.3,0.9,0.5,1C3,7.2,3.2,7.6,3.5,8l0,0c0,0,0,0,0,0c0,0.4,0,0.6,0,0.7C3.3,8.9,2.6,9.2,2.1,9.3C1.4,9.4,0.6,9.7,0.2,11
	c-0.1,0.2-0.1,0.5,0.1,0.7c0.5,0.7,3.1,1.2,5.1,1.2c2.1,0,4.6-0.5,5.1-1.2c0.1-0.2,0.2-0.4,0.1-0.7C10.1,9.7,9.3,9.4,8.6,9.3z
	 M5.4,12c-2.2,0-4.3-0.7-4.1-1.2c0.4-1,0.9-1,1.3-1.1C3,9.7,4.1,9.3,4.2,9c0-0.1,0-0.2,0-0.4C4.6,8.9,5,9,5.4,9c0,0,0,0,0.1,0
	c0.4,0,0.8-0.2,1.1-0.4c0,0.2,0,0.3,0,0.4c0.1,0.3,1.1,0.7,1.6,0.8C8.6,9.9,9,9.9,9.4,10.9C9.6,11.4,7.5,12,5.4,12z"/>
<g>
	<path fill="#FFFFFF" d="M10.4,7.1c-1.9,0-3.5-1.6-3.5-3.5c0-1.9,1.6-3.5,3.5-3.5c1.9,0,3.5,1.6,3.5,3.5C13.9,5.6,12.3,7.1,10.4,7.1
		z M10.4,0.7C8.8,0.7,7.5,2,7.5,3.6s1.3,2.9,2.9,2.9c1.6,0,2.9-1.3,2.9-2.9S11.9,0.7,10.4,0.7z"/>
	<g>
		<g>
			<path fill="#FFFFFF" d="M9.9,5c0-0.2,0.2-0.4,0.5-0.4c0.3,0,0.5,0.2,0.5,0.4c0,0.2-0.2,0.4-0.5,0.4C10.1,5.4,9.9,5.2,9.9,5z
				 M10,4.3L9.9,1.8h0.9l-0.1,2.4H10z"/>
		</g>
	</g>
</g>
</svg>
