<?xml version="1.0" encoding="utf-8"?>
<!-- Generator: Adobe Illustrator 18.0.0, SVG Export Plug-In . SVG Version: 6.00 Build 0)  -->
<!DOCTYPE svg PUBLIC "-//W3C//DTD SVG 1.1//EN" "http://www.w3.org/Graphics/SVG/1.1/DTD/svg11.dtd">
<svg version="1.1" id="Layer_1" xmlns="http://www.w3.org/2000/svg" xmlns:xlink="http://www.w3.org/1999/xlink" x="0px" y="0px"
	 viewBox="0 0 14 13" enable-background="new 0 0 14 13" xml:space="preserve">
<path fill-rule="evenodd" clip-rule="evenodd" fill="#FFFFFF" d="M8.6,9.3C8.1,9.2,7.4,8.9,7.1,8.8c0-0.1,0-0.3,0-0.7c0,0,0,0,0-0.1
	c0,0,0,0,0,0v0c0.3-0.4,0.5-0.8,0.5-1.1c0,0,0-0.1,0-0.1C6.8,6,6.1,4.9,6.1,3.6c0-0.7,0.2-1.4,0.6-2c0,0,0,0,0,0
	C6.6,1.4,6.4,1.4,6.3,1.3l0,0l0,0C6,1.2,5.8,1.2,5.5,1.2c-0.1,0-0.1,0-0.2,0c-0.1,0-0.1,0-0.2,0c-0.3,0-0.5,0-0.8,0.1l0,0l0,0
	c-0.8,0.3-2,1.3-1.8,3.4c0,0,0,0,0,0C2.2,5.1,2.3,5.5,2.4,5.9c0.1,0.6,0.3,0.9,0.5,1C3,7.2,3.1,7.6,3.5,8l0,0c0,0,0,0,0,0
	c0,0.4,0,0.6,0,0.7C3.3,8.9,2.6,9.2,2,9.3C1.4,9.4,0.6,9.7,0.1,11c-0.1,0.2-0.1,0.5,0.1,0.7c0.5,0.7,3.1,1.2,5.1,1.2
	c2.1,0,4.6-0.5,5.1-1.2c0.1-0.2,0.2-0.4,0.1-0.7C10,9.7,9.2,9.4,8.6,9.3z"/>
<path fill="#FFFFFF" d="M10.3,0.1c-1.9,0-3.5,1.6-3.5,3.5c0,1.9,1.6,3.5,3.5,3.5c1.9,0,3.5-1.6,3.5-3.5C13.8,1.6,12.2,0.1,10.3,0.1z
	 M10.7,1.8l-0.1,2.4H10L9.9,1.8H10.7z M10.3,5.4C10,5.4,9.8,5.2,9.8,5c0-0.2,0.2-0.4,0.5-0.4c0.3,0,0.5,0.2,0.5,0.4
	C10.8,5.2,10.6,5.4,10.3,5.4z"/>
</svg>
