<svg xmlns="http://www.w3.org/2000/svg" xmlns:xlink="http://www.w3.org/1999/xlink" preserveAspectRatio="xMidYMid" width="65" height="80" viewBox="0 0 65 80">
  <defs>
    <style>

      .cls-2 {
        fill: #ffffff;
      }
    </style>
  </defs>
  <path d="M61.487,70.123 C61.487,70.123 43.902,70.123 43.902,70.123 C42.698,75.842 37.677,80.138 31.687,80.138 C25.689,80.138 20.667,75.842 19.463,70.124 C19.463,70.124 2.610,70.124 2.610,70.124 C1.163,70.124 -0.006,68.939 -0.006,67.472 C-0.006,67.472 -0.006,56.625 -0.006,56.625 C-0.006,56.457 0.012,56.290 0.038,56.122 C0.074,55.954 0.126,55.786 0.187,55.627 C0.203,55.573 0.230,55.521 0.256,55.467 C0.378,55.211 0.553,54.963 0.762,54.751 C0.762,54.751 8.085,47.326 8.085,47.326 C8.085,47.326 8.085,30.876 8.085,30.876 C8.085,18.581 17.275,8.425 29.071,7.099 C29.071,7.099 29.071,2.645 29.071,2.645 C29.071,1.177 30.239,-0.007 31.687,-0.007 C33.125,-0.007 34.303,1.177 34.302,2.645 C34.302,2.645 34.302,7.100 34.302,7.100 C46.090,8.426 55.288,18.582 55.288,30.877 C55.288,30.877 55.288,46.593 55.288,46.593 C55.288,46.593 63.335,54.752 63.335,54.752 C63.404,54.823 63.465,54.894 63.518,54.964 C63.570,55.025 63.613,55.088 63.657,55.158 C63.728,55.256 63.788,55.362 63.832,55.459 C63.885,55.565 63.928,55.680 63.963,55.795 C63.981,55.821 63.989,55.847 63.989,55.865 C64.024,55.980 64.050,56.104 64.067,56.228 C64.077,56.263 64.085,56.289 64.085,56.325 C64.094,56.360 64.094,56.395 64.094,56.431 C64.103,56.493 64.103,56.563 64.103,56.625 C64.103,56.625 64.103,67.471 64.103,67.471 C64.103,68.939 62.935,70.123 61.487,70.123 ZM31.941,79.134 C35.865,79.134 42.265,74.600 42.450,70.126 C42.450,70.126 20.613,70.126 20.613,70.126 C21.034,74.350 28.005,79.134 31.941,79.134 ZM62.717,56.591 C62.717,56.591 54.407,47.763 54.407,47.763 C54.365,47.722 54.325,47.683 54.293,47.642 C54.055,47.400 53.878,47.127 53.754,46.844 C53.734,46.783 53.702,46.723 53.682,46.662 C53.650,46.600 53.629,46.540 53.619,46.479 C53.588,46.389 53.557,46.297 53.547,46.196 C53.526,46.095 53.505,45.983 53.505,45.873 C53.494,45.782 53.494,45.700 53.494,45.620 C53.494,45.620 53.494,29.746 53.494,29.746 C53.494,18.013 43.208,8.452 31.636,8.452 C20.052,8.452 9.743,18.013 9.743,29.746 C9.743,29.746 9.743,46.456 9.743,46.456 C9.743,46.669 9.722,46.881 9.680,47.073 C9.660,47.174 9.629,47.275 9.597,47.366 C9.587,47.417 9.566,47.477 9.535,47.528 C9.515,47.589 9.483,47.649 9.463,47.700 C9.421,47.812 9.780,47.743 9.718,47.842 C9.657,47.942 9.161,48.226 9.079,48.327 C9.006,48.428 8.923,48.520 8.830,48.610 C8.830,48.610 1.382,56.527 1.382,56.527 C1.382,56.527 1.382,68.908 1.382,68.908 C1.382,68.908 62.717,68.908 62.717,68.908 C62.717,68.908 62.717,56.591 62.717,56.591 Z" id="path-1" class="cls-2" fill-rule="evenodd"/>
</svg>
