<svg xmlns="http://www.w3.org/2000/svg" xmlns:xlink="http://www.w3.org/1999/xlink" preserveAspectRatio="xMidYMid" width="39" height="32" viewBox="0 0 39 32">
  <defs>
    <style>

      .cls-2 {
        fill: #ffffff;
        filter: url(#outer-glow-1);
      }
    </style>

    <filter id="outer-glow-1" filterUnits="userSpaceOnUse">
      <feGaussianBlur stdDeviation="3.333" in="SourceAlpha"/>
      <feComposite/>
      <feComposite/>
      <feComposite result="outerGlowBlur"/>
      <feFlood flood-color="#ffffff" flood-opacity="0.19"/>
      <feComposite operator="in" in2="outerGlowBlur"/>
      <feComposite in="SourceGraphic" result="outerGlow"/>
    </filter>
  </defs>
  <path d="M26.562,22.500 C26.562,22.500 12.437,22.500 12.437,22.500 C11.333,22.500 10.437,21.604 10.437,20.500 C10.437,20.500 10.437,11.500 10.437,11.500 C10.437,10.763 10.841,10.126 11.435,9.779 C11.435,9.779 11.472,9.655 11.472,9.655 C11.472,9.655 11.548,9.717 11.548,9.717 C11.817,9.583 12.116,9.500 12.437,9.500 C12.437,9.500 26.562,9.500 26.562,9.500 C26.911,9.500 27.234,9.597 27.519,9.754 C27.519,9.754 27.564,9.717 27.564,9.717 C27.564,9.717 27.588,9.791 27.588,9.791 C28.170,10.141 28.562,10.772 28.562,11.500 C28.562,11.500 28.562,20.500 28.562,20.500 C28.562,21.604 27.667,22.500 26.562,22.500 ZM25.750,10.312 C25.750,10.312 13.281,10.312 13.281,10.312 C12.997,10.312 12.727,10.374 12.482,10.481 C12.482,10.481 19.516,16.232 19.516,16.232 C19.516,16.232 26.592,10.504 26.592,10.504 C26.335,10.384 26.052,10.312 25.750,10.312 ZM27.750,12.312 C27.750,11.824 27.568,11.382 27.277,11.035 C27.277,11.035 20.399,16.954 20.399,16.954 C20.399,16.954 20.531,17.062 20.531,17.062 C20.531,17.062 19.753,17.510 19.753,17.510 C19.753,17.510 19.534,17.699 19.534,17.699 C19.534,17.699 18.543,17.019 18.543,17.019 C18.543,17.019 18.635,16.944 18.635,16.944 C18.635,16.944 11.634,11.181 11.634,11.181 C11.412,11.503 11.281,11.892 11.281,12.312 C11.281,12.312 11.281,19.687 11.281,19.687 C11.281,20.792 12.177,21.687 13.281,21.687 C13.281,21.687 25.750,21.687 25.750,21.687 C26.855,21.687 27.750,20.792 27.750,19.687 C27.750,19.687 27.750,12.312 27.750,12.312 Z" id="path-1" class="cls-2" fill-rule="evenodd"/>
</svg>
