<?xml version="1.0" encoding="utf-8"?>
<!-- Generator: Adobe Illustrator 18.0.0, SVG Export Plug-In . SVG Version: 6.00 Build 0)  -->
<!DOCTYPE svg PUBLIC "-//W3C//DTD SVG 1.1//EN" "http://www.w3.org/Graphics/SVG/1.1/DTD/svg11.dtd">
<svg version="1.1" id="Layer_1" xmlns="http://www.w3.org/2000/svg" xmlns:xlink="http://www.w3.org/1999/xlink" x="0px" y="0px"
	 viewBox="0 0 14 13" enable-background="new 0 0 14 13" xml:space="preserve">
<path fill-rule="evenodd" clip-rule="evenodd" fill="#CF1417" d="M13.9,10.7L7.6,0.5c-0.2-0.2-1-0.4-1.2-0.2L0.1,10.5
	c-0.2,0.2,0.2,1.9,0.3,2.1l0.1,0.1h12.7l0.1-0.1C13.5,12.4,14.1,10.9,13.9,10.7z M12.4,11.5L12.4,11.5L1.7,11.6l-0.1-0.1
	c-0.2-0.2-0.2-1.2,0-1.3l5.1-8.1c0.2-0.2,0.5-0.2,0.7,0l5.1,8.1C12.6,10.3,12.6,11.3,12.4,11.5z"/>
<path fill="#CF1417" d="M6.3,4.6l0.2,3.7h1.1l0.2-3.7H6.3z M7.6,10.6c0.1-0.1,0.2-0.7,0.2-0.9c0-0.2-0.1-0.3-0.2-0.4
	C7.4,9.1,7.2,9.1,7,9.1c-0.2,0-0.4,0.1-0.6,0.2C6.3,9.3,6.2,9.5,6.2,9.7c0,0.2,0.1,0.7,0.2,0.9c0.1,0.1,0.3,0.2,0.6,0.2
	C7.2,10.7,7.4,10.7,7.6,10.6z"/>
</svg>
