<?xml version="1.0" encoding="utf-8"?>
<!-- Generator: Adobe Illustrator 18.0.0, SVG Export Plug-In . SVG Version: 6.00 Build 0)  -->
<!DOCTYPE svg PUBLIC "-//W3C//DTD SVG 1.1//EN" "http://www.w3.org/Graphics/SVG/1.1/DTD/svg11.dtd">
<svg version="1.1" id="Layer_1" xmlns="http://www.w3.org/2000/svg" xmlns:xlink="http://www.w3.org/1999/xlink" x="0px" y="0px"
	 viewBox="0 0 14 13" enable-background="new 0 0 14 13" xml:space="preserve">
<path fill="#FFFFFF" d="M7,13c-3.6,0-6.5-2.9-6.5-6.5C0.5,2.9,3.4,0,7,0s6.5,2.9,6.5,6.5C13.5,10.1,10.6,13,7,13z M7,1.1
	c-3,0-5.4,2.4-5.4,5.4c0,3,2.4,5.4,5.4,5.4s5.4-2.4,5.4-5.4C12.4,3.5,10,1.1,7,1.1z"/>
<g>
	<g>
		<path fill="#FFFFFF" d="M6.5,8.3C6.6,8.1,6.8,8,7,8c0,0,0,0,0,0s0,0,0,0c0.2,0,0.4,0.1,0.5,0.3c0.2,0.2,0.2,0.4,0.2,0.6
			c0,0.2-0.1,0.4-0.2,0.6C7.4,9.6,7.2,9.7,7,9.7c0,0,0,0,0,0s0,0,0,0s0,0,0,0s0,0,0,0c-0.2,0-0.4-0.1-0.5-0.2
			C6.3,9.3,6.2,9.2,6.2,8.9C6.2,8.7,6.3,8.5,6.5,8.3z M7.7,3.3v4.2H6.3V3.3H7.7z"/>
	</g>
</g>
</svg>
