<?xml version="1.0" encoding="utf-8"?>
<!-- Generator: Adobe Illustrator 18.0.0, SVG Export Plug-In . SVG Version: 6.00 Build 0)  -->
<!DOCTYPE svg PUBLIC "-//W3C//DTD SVG 1.1//EN" "http://www.w3.org/Graphics/SVG/1.1/DTD/svg11.dtd">
<svg version="1.1" id="Layer_1" xmlns="http://www.w3.org/2000/svg" xmlns:xlink="http://www.w3.org/1999/xlink" x="0px" y="0px"
	 viewBox="0 0 14 13" enable-background="new 0 0 14 13" xml:space="preserve">
<path fill="#FFFFFF" d="M13.5,6.5c0,3.6-2.9,6.5-6.5,6.5s-6.5-2.9-6.5-6.5C0.5,2.9,3.4,0,7,0S13.5,2.9,13.5,6.5z M12.4,6.5
	c0-3-2.4-5.4-5.4-5.4S1.6,3.5,1.6,6.5c0,3,2.4,5.4,5.4,5.4S12.4,9.5,12.4,6.5z"/>
<g>
	<g>
		<path fill="#FFFFFF" d="M6.2,4.1c0-0.3,0.1-0.4,0.2-0.6C6.6,3.4,6.8,3.3,7,3.3c0,0,0,0,0,0s0,0,0,0s0,0,0,0s0,0,0,0
			c0.2,0,0.3,0.1,0.5,0.2c0.2,0.1,0.2,0.3,0.2,0.6c0,0.2-0.1,0.4-0.2,0.6C7.4,4.9,7.2,5,7,5c0,0,0,0,0,0s0,0,0,0
			C6.8,5,6.6,4.9,6.5,4.7C6.3,4.5,6.2,4.3,6.2,4.1z M6.3,9.7V5.5h1.4v4.2H6.3z"/>
	</g>
</g>
</svg>
