<?xml version="1.0" encoding="utf-8"?>
<!-- Generator: Adobe Illustrator 18.0.0, SVG Export Plug-In . SVG Version: 6.00 Build 0)  -->
<!DOCTYPE svg PUBLIC "-//W3C//DTD SVG 1.1//EN" "http://www.w3.org/Graphics/SVG/1.1/DTD/svg11.dtd">
<svg version="1.1" id="Layer_1" xmlns="http://www.w3.org/2000/svg" xmlns:xlink="http://www.w3.org/1999/xlink" x="0px" y="0px"
	 viewBox="0 0 14 13" enable-background="new 0 0 14 13" xml:space="preserve">
<g>
	<path fill="#FFFFFF" d="M7.5,8.4C7.1,8.3,6.5,8.1,6.3,8c0-0.1,0-0.3,0-0.5c0,0,0,0,0,0l0,0c0.3-0.4,0.4-0.8,0.5-1
		c0.2-0.2,0.4-0.5,0.5-0.9c0.1-0.3,0.1-0.7-0.1-1c0.2-1.9-1-2.8-1.7-3.1l0,0C5.3,1.4,5,1.3,4.8,1.3c-0.1,0-0.1,0-0.1,0
		c-0.3,0-0.6,0-0.9,0.1l0,0C3.1,1.7,1.9,2.6,2.1,4.5C1.9,4.8,1.9,5.2,2,5.5c0.1,0.4,0.3,0.7,0.5,0.9c0.1,0.2,0.2,0.6,0.4,1l0,0
		L3,7.4C3,7.7,3,7.9,3,8C2.8,8.1,2.2,8.3,1.8,8.4C1.2,8.5,0.5,8.7,0,9.9C0,10.1,0,10.4,0.1,10.6c0.4,0.7,2.7,1.1,4.5,1.1
		c1.8,0,4.1-0.4,4.5-1.1c0.1-0.2,0.2-0.4,0.1-0.6C8.8,8.7,8.1,8.5,7.5,8.4z M2.9,4.9C2.6,3,4,2.3,4,2.3c0.2-0.1,0.5-0.1,0.6-0.1l0,0
		l0,0c0.2,0,0.4,0,0.6,0.1c0,0,1.4,0.7,1.1,2.6l0,0.1L6.5,5c0,0,0,0,0,0c0,0,0.1,0.1,0,0.4C6.4,5.9,6.2,5.9,6.2,5.9l-0.1,0l0,0.1
		c0,0,0,0.5-0.5,1.1l0,0C5.4,7.3,5.1,7.6,4.7,7.6l0,0c-0.3,0-0.7-0.2-1-0.5l0,0C3.2,6.5,3.2,6,3.2,6l0-0.1l-0.1,0c0,0-0.2,0-0.3-0.5
		C2.7,5.1,2.8,5,2.8,5c0,0,0,0,0,0L3,5.1L2.9,4.9z M3.7,8.2c0-0.1,0-0.1,0-0.2C4,8.2,4.3,8.3,4.7,8.3c0,0,0,0,0.1,0
		C5,8.3,5.3,8.2,5.6,8c0,0.1,0,0.2,0,0.2C5.7,8.5,6.7,8.9,7.1,9l0.1,0c0.4,0.1,0.7,0.1,0.9,0.9c0,0,0,0,0,0.1
		c-0.3,0.4-1.8,0.8-3.4,0.8c-1.6,0-3.3-0.4-3.5-0.8c0-0.1,0-0.1,0-0.1c0.3-0.8,0.6-0.8,1-0.9l0.1,0C2.6,8.9,3.6,8.5,3.7,8.2z"/>
	<path fill="#FFFFFF" d="M14,9c-0.4-1-1-1.2-1.4-1.3c-0.4-0.1-0.8-0.2-1-0.3c0-0.1,0-0.2,0-0.4c0,0,0,0,0,0h0V6.9
		c0.2-0.3,0.3-0.6,0.4-0.8c0.2-0.2,0.3-0.4,0.4-0.8c0.1-0.3,0.1-0.6-0.1-0.8c0.1-1.6-0.8-2.4-1.4-2.6l0,0c-0.2-0.1-0.4-0.1-0.6-0.1
		c0,0-0.1,0-0.1,0c-0.2,0-0.5,0-0.7,0.1l0,0C8.9,2.1,7.9,2.9,8,4.5C7.8,4.7,7.9,5.1,7.9,5.3C8,5.7,8.2,5.9,8.3,6.1
		c0,0.2,0.2,0.5,0.4,0.8l0,0l0.1,0.1c0,0.3,0,0.4,0,0.5C8.7,7.5,8.7,7.6,8.7,7.7c0,0,0,0,0,0L8.3,7.7l0.3,0.2l0,0l0.1,0
		c0,0,0,0,0.1,0l0,0c0.1,0,0.1,0,0.1,0c0,0,0,0,0.1,0l0,0l0,0c0.2-0.1,0.3-0.2,0.3-0.2c0,0,0-0.1,0-0.2c0.3,0.2,0.5,0.3,0.8,0.3
		l0.1,0c0.3,0,0.5-0.1,0.8-0.3c0,0.1,0,0.1,0,0.2c0.1,0.2,0.5,0.4,1.4,0.5c0.3,0.1,0.6,0.2,0.9,0.9c0,0,0,0,0,0.1
		c-0.2,0.3-1.4,0.6-2.8,0.6l-0.1,0l0,0.1c0.1,0.1,0.1,0.3,0.1,0.4l0,0.1l0.1,0c1.4-0.1,3-0.4,3.3-0.9C14,9.4,14,9.2,14,9z M8.6,4.7
		C8.3,3,9.5,2.6,9.6,2.5c0.2,0,0.3-0.1,0.4-0.1c0,0,0.1,0,0.1,0c0.1,0,0.3,0,0.5,0.1c0.1,0,1.3,0.5,1,2.2l0,0.1l0.1-0.1c0,0,0,0,0,0
		c0,0,0,0.1,0,0.4c-0.1,0.4-0.2,0.5-0.3,0.5l-0.1,0l0,0.1c0,0,0,0.5-0.4,0.9l0,0v0c-0.2,0.2-0.4,0.4-0.8,0.4l0,0
		C9.9,7.1,9.6,7,9.3,6.7l0,0C8.9,6.2,8.9,5.7,8.9,5.7l0-0.1l-0.1,0c-0.1,0-0.2-0.1-0.3-0.5c-0.1-0.3,0-0.3,0-0.4c0,0,0,0,0,0
		l0.1,0.1L8.6,4.7z"/>
</g>
</svg>
