<?xml version="1.0" encoding="utf-8"?>
<!-- Generator: Adobe Illustrator 18.0.0, SVG Export Plug-In . SVG Version: 6.00 Build 0)  -->
<!DOCTYPE svg PUBLIC "-//W3C//DTD SVG 1.1//EN" "http://www.w3.org/Graphics/SVG/1.1/DTD/svg11.dtd">
<svg version="1.1" id="Layer_1" xmlns="http://www.w3.org/2000/svg" xmlns:xlink="http://www.w3.org/1999/xlink" x="0px" y="0px"
	 viewBox="0 0 14 13" enable-background="new 0 0 14 13" xml:space="preserve">
<path fill="#FFFFFF" d="M12.4,1.1H8.5H5.7H1.6C0.7,1.1,0,1.8,0,2.8v7.4c0,0.9,0.7,1.7,1.7,1.7h4h2.8h3.8c1,0,1.7-0.8,1.7-1.7V2.8
	C14,1.8,13.3,1.1,12.4,1.1z M2.6,2.3h3.1h2.8h2.9c0.1,0,0.2,0,0.3,0L7,6.5L2.3,2.3C2.4,2.3,2.5,2.3,2.6,2.3z M13,8.9
	c0,0.9-0.7,1.7-1.6,1.7H8.5H5.7H2.6C1.7,10.6,1,9.8,1,8.9v-5c0-0.4,0.1-0.7,0.3-1l5.7,5.2L7,8.1l0,0l0,0l0.1-0.1l5.7-5.2
	c0.2,0.3,0.3,0.6,0.3,1L13,8.9L13,8.9z"/>
</svg>
