<svg xmlns="http://www.w3.org/2000/svg" xmlns:xlink="http://www.w3.org/1999/xlink" preserveAspectRatio="xMidYMid" width="43" height="37" viewBox="0 0 43 37">
  <defs>
    <style>

      .cls-2 {
        fill: #e6e6e6;
        filter: url(#outer-glow-1);
      }
    </style>

    <filter id="outer-glow-1" filterUnits="userSpaceOnUse">
      <feGaussianBlur stdDeviation="3" in="SourceAlpha"/>
      <feComposite/>
      <feComposite/>
      <feComposite result="outerGlowBlur"/>
      <feFlood flood-color="#ffffff" flood-opacity="0.15"/>
      <feComposite operator="in" in2="outerGlowBlur"/>
      <feComposite in="SourceGraphic" result="outerGlow"/>
    </filter>
  </defs>
  <path d="M32.685,24.329 C32.685,24.329 33.759,28.011 33.759,28.011 C33.759,28.011 30.275,26.340 30.275,26.340 C29.401,26.791 28.406,27.109 27.321,27.230 C23.457,27.660 20.026,25.527 19.658,22.465 C19.290,19.403 22.124,16.572 25.988,16.142 C29.852,15.712 33.283,17.845 33.651,20.907 C33.776,21.941 33.534,22.949 33.012,23.847 C32.915,24.013 32.800,24.171 32.685,24.329 ZM26.331,14.500 C25.240,12.097 22.351,10.367 18.923,10.367 C14.563,10.367 11.028,13.148 11.028,16.579 C11.028,17.738 11.432,18.823 12.134,19.751 C12.334,20.016 12.565,20.263 12.811,20.500 C12.811,20.500 12.246,23.807 12.246,23.807 C12.246,23.807 15.180,22.039 15.180,22.039 C16.009,22.391 16.924,22.634 17.897,22.736 C17.863,23.064 17.844,23.397 17.844,23.734 C17.844,23.869 17.857,23.999 17.863,24.132 C16.921,24.051 16.020,23.866 15.180,23.588 C15.180,23.588 10.906,26.482 10.906,26.482 C10.906,26.482 11.464,21.395 11.464,21.395 C11.155,21.099 10.866,20.791 10.616,20.461 C9.757,19.325 9.263,17.998 9.263,16.580 C9.263,12.382 13.588,8.979 18.923,8.979 C23.408,8.979 27.169,11.389 28.256,14.650 C27.727,14.545 27.183,14.484 26.625,14.484 C26.526,14.484 26.429,14.497 26.331,14.500 Z" id="path-1" class="cls-2" fill-rule="evenodd"/>
</svg>
