<svg xmlns="http://www.w3.org/2000/svg" xmlns:xlink="http://www.w3.org/1999/xlink" preserveAspectRatio="xMidYMid" width="35" height="39" viewBox="0 0 35 39">
  <defs>
    <style>

      .cls-2 {
        fill: #e6e6e6;
        filter: url(#outer-glow-1);
      }
    </style>

    <filter id="outer-glow-1" filterUnits="userSpaceOnUse">
      <feGaussianBlur stdDeviation="3" in="SourceAlpha"/>
      <feComposite/>
      <feComposite/>
      <feComposite result="outerGlowBlur"/>
      <feFlood flood-color="#ffffff" flood-opacity="0.15"/>
      <feComposite operator="in" in2="outerGlowBlur"/>
      <feComposite in="SourceGraphic" result="outerGlow"/>
    </filter>
  </defs>
  <path d="M25.522,27.686 C25.522,27.686 20.730,27.686 20.730,27.686 C20.402,29.244 19.034,30.415 17.402,30.415 C15.768,30.415 14.399,29.244 14.071,27.686 C14.071,27.686 9.479,27.686 9.479,27.686 C9.085,27.686 8.767,27.364 8.767,26.964 C8.767,26.964 8.767,24.009 8.767,24.009 C8.767,23.963 8.771,23.917 8.779,23.871 C8.788,23.826 8.802,23.780 8.819,23.736 C8.824,23.722 8.831,23.708 8.838,23.693 C8.871,23.623 8.919,23.556 8.976,23.498 C8.976,23.498 10.971,21.475 10.971,21.475 C10.971,21.475 10.971,16.993 10.971,16.993 C10.971,13.643 13.475,10.875 16.689,10.514 C16.689,10.514 16.689,9.300 16.689,9.300 C16.689,8.901 17.007,8.578 17.402,8.578 C17.794,8.578 18.115,8.901 18.114,9.300 C18.114,9.300 18.114,10.514 18.114,10.514 C21.326,10.876 23.832,13.643 23.832,16.993 C23.832,16.993 23.832,21.275 23.832,21.275 C23.832,21.275 26.025,23.498 26.025,23.498 C26.044,23.517 26.060,23.537 26.075,23.556 C26.089,23.573 26.101,23.590 26.113,23.609 C26.132,23.635 26.148,23.664 26.160,23.691 C26.175,23.720 26.187,23.751 26.196,23.782 C26.201,23.789 26.203,23.797 26.203,23.801 C26.213,23.833 26.220,23.866 26.225,23.900 C26.227,23.910 26.229,23.917 26.229,23.927 C26.232,23.936 26.232,23.946 26.232,23.956 C26.234,23.973 26.234,23.992 26.234,24.009 C26.234,24.009 26.234,26.964 26.234,26.964 C26.234,27.364 25.916,27.686 25.522,27.686 ZM17.403,29.145 C18.472,29.145 19.390,28.463 19.757,27.508 C19.757,27.508 15.049,27.508 15.049,27.508 C15.413,28.463 16.331,29.145 17.403,29.145 ZM24.809,24.308 C24.809,24.308 22.616,22.085 22.616,22.085 C22.607,22.075 22.597,22.065 22.590,22.056 C22.536,21.998 22.495,21.933 22.467,21.865 C22.462,21.851 22.455,21.837 22.450,21.822 C22.443,21.807 22.438,21.793 22.436,21.779 C22.429,21.757 22.422,21.735 22.419,21.711 C22.414,21.687 22.410,21.660 22.410,21.634 C22.407,21.612 22.407,21.593 22.407,21.574 C22.407,21.574 22.407,16.993 22.407,16.993 C22.407,14.197 20.160,11.918 17.402,11.918 C14.641,11.918 12.397,14.197 12.397,16.993 C12.397,16.993 12.397,21.773 12.397,21.773 C12.397,21.824 12.392,21.874 12.382,21.920 C12.378,21.944 12.370,21.968 12.363,21.990 C12.361,22.002 12.356,22.016 12.349,22.028 C12.344,22.043 12.337,22.057 12.332,22.069 C12.323,22.096 12.309,22.123 12.294,22.147 C12.280,22.171 12.263,22.195 12.245,22.219 C12.228,22.243 12.209,22.265 12.188,22.286 C12.188,22.286 10.192,24.307 10.192,24.307 C10.192,24.307 10.192,26.378 10.192,26.378 C10.192,26.378 24.809,26.378 24.809,26.378 C24.809,26.378 24.809,24.308 24.809,24.308 Z" id="path-1" class="cls-2" fill-rule="evenodd"/>
</svg>
