<svg xmlns="http://www.w3.org/2000/svg" xmlns:xlink="http://www.w3.org/1999/xlink" preserveAspectRatio="xMidYMid" width="18" height="16" viewBox="0 0 18 16">
  <defs>
    <style>

      .cls-2 {
        fill: #d19834;
      }
    </style>
  </defs>
  <path d="M17.057,6.145 C16.784,8.144 15.393,10.173 13.408,10.625 C13.408,10.625 13.041,10.709 13.041,10.709 C13.041,10.709 13.108,10.326 13.108,10.326 C13.461,8.320 14.816,6.487 16.733,5.862 C16.733,5.862 17.112,5.738 17.112,5.738 C17.112,5.738 17.057,6.145 17.057,6.145 ZM13.542,4.676 C13.585,3.607 13.911,2.555 14.561,1.696 C14.561,1.696 14.821,1.352 14.821,1.352 C14.821,1.352 14.989,1.752 14.989,1.752 C15.381,2.685 15.492,3.721 15.346,4.716 C15.346,4.716 13.542,4.676 13.542,4.676 ZM12.132,4.645 C11.108,3.507 10.514,1.871 10.935,0.360 C10.935,0.360 11.040,-0.014 11.040,-0.014 C11.040,-0.014 11.333,0.230 11.333,0.230 C12.606,1.286 13.398,2.980 13.258,4.670 C13.258,4.670 12.132,4.645 12.132,4.645 ZM14.367,7.137 C14.367,7.137 14.100,7.492 14.100,7.492 C14.100,7.492 13.936,7.076 13.936,7.076 C13.889,6.958 13.857,6.835 13.818,6.715 C13.818,6.715 15.064,5.842 15.064,5.842 C14.893,6.303 14.663,6.741 14.367,7.137 ZM10.687,7.848 C10.687,7.848 12.139,12.579 12.139,12.579 C12.139,12.579 8.620,9.480 8.620,9.480 C8.620,9.480 5.100,12.579 5.100,12.579 C5.100,12.579 6.553,7.848 6.553,7.848 C6.553,7.848 2.925,5.308 2.925,5.308 C2.925,5.308 7.343,5.209 7.343,5.209 C7.343,5.209 8.620,0.813 8.620,0.813 C8.620,0.813 9.897,5.209 9.897,5.209 C9.897,5.209 14.314,5.308 14.314,5.308 C14.314,5.308 10.687,7.848 10.687,7.848 ZM3.842,4.673 C3.700,2.982 4.492,1.287 5.765,0.230 C5.765,0.230 6.059,-0.014 6.059,-0.014 C6.059,-0.014 6.163,0.360 6.163,0.360 C6.585,1.872 5.990,3.510 4.965,4.648 C4.965,4.648 3.842,4.673 3.842,4.673 ZM2.110,1.752 C2.110,1.752 2.278,1.352 2.278,1.352 C2.278,1.352 2.538,1.696 2.538,1.696 C3.188,2.556 3.515,3.609 3.557,4.679 C3.557,4.679 1.753,4.719 1.753,4.719 C1.607,3.723 1.718,2.686 2.110,1.752 ZM2.732,7.137 C2.411,6.707 2.171,6.226 1.997,5.722 C1.997,5.722 3.305,6.638 3.305,6.638 C3.261,6.785 3.219,6.933 3.163,7.076 C3.163,7.076 2.999,7.493 2.999,7.493 C2.999,7.493 2.732,7.137 2.732,7.137 ZM3.991,10.326 C3.991,10.326 4.058,10.709 4.058,10.709 C4.058,10.709 3.691,10.625 3.691,10.625 C1.706,10.173 0.315,8.144 0.042,6.145 C0.042,6.145 -0.013,5.738 -0.013,5.738 C-0.013,5.738 0.366,5.862 0.366,5.862 C2.283,6.487 3.638,8.320 3.991,10.326 ZM4.805,11.260 C4.805,11.260 4.275,12.987 4.275,12.987 C2.845,12.859 1.452,12.249 0.575,11.053 C0.575,11.053 0.322,10.708 0.322,10.708 C0.322,10.708 0.736,10.641 0.736,10.641 C2.099,10.420 3.580,10.595 4.805,11.260 ZM4.082,13.615 C4.082,13.615 3.676,14.937 3.676,14.937 C3.466,14.891 3.258,14.829 3.057,14.738 C3.057,14.738 2.644,14.553 2.644,14.553 C2.644,14.553 3.015,14.288 3.015,14.288 C3.358,14.045 3.714,13.817 4.082,13.615 ZM6.374,12.591 C6.374,12.591 6.542,12.803 6.542,12.803 C6.542,12.803 6.136,12.889 6.136,12.889 C6.097,12.897 6.055,12.899 6.016,12.907 C6.016,12.907 6.374,12.591 6.374,12.591 ZM10.780,12.522 C10.780,12.522 11.244,12.931 11.244,12.931 C11.151,12.915 11.055,12.909 10.963,12.889 C10.963,12.889 10.557,12.803 10.557,12.803 C10.557,12.803 10.780,12.522 10.780,12.522 ZM8.296,13.207 C8.296,13.207 8.306,13.209 8.306,13.209 C8.306,13.209 8.317,13.213 8.317,13.213 C8.470,13.264 8.629,13.264 8.783,13.213 C8.783,13.213 8.793,13.209 8.793,13.209 C8.793,13.209 8.804,13.207 8.804,13.207 C9.614,13.014 10.453,12.993 11.284,13.039 C11.321,13.043 11.355,13.056 11.392,13.060 C11.392,13.060 13.496,14.914 13.496,14.914 C12.789,15.086 12.038,15.035 11.324,14.911 C10.821,14.814 10.383,14.554 9.941,14.328 C10.264,14.682 10.599,15.023 10.986,15.293 C10.986,15.293 11.253,15.478 11.253,15.478 C11.253,15.478 11.014,15.699 11.014,15.699 C10.915,15.791 10.818,15.883 10.721,15.976 C10.721,15.976 10.601,16.092 10.601,16.092 C10.601,16.092 10.450,16.024 10.450,16.024 C9.528,15.613 9.266,14.591 8.549,14.108 C7.833,14.591 7.571,15.613 6.649,16.024 C6.649,16.024 6.498,16.092 6.498,16.092 C6.498,16.092 6.378,15.976 6.378,15.976 C6.281,15.883 6.183,15.791 6.085,15.700 C6.085,15.700 5.846,15.478 5.846,15.478 C5.846,15.478 6.113,15.293 6.113,15.293 C6.500,15.023 6.835,14.682 7.158,14.328 C6.716,14.554 6.277,14.814 5.773,14.912 C5.094,15.030 4.379,15.089 3.701,14.945 C3.701,14.945 5.865,13.039 5.865,13.039 C6.678,12.996 7.500,13.017 8.296,13.207 ZM14.084,14.288 C14.084,14.288 14.455,14.553 14.455,14.553 C14.455,14.553 14.042,14.738 14.042,14.738 C13.881,14.811 13.713,14.854 13.545,14.898 C13.545,14.898 13.179,13.706 13.179,13.706 C13.489,13.886 13.792,14.080 14.084,14.288 ZM12.408,11.197 C13.611,10.584 15.042,10.427 16.363,10.641 C16.363,10.641 16.777,10.708 16.777,10.708 C16.777,10.708 16.524,11.053 16.524,11.053 C15.673,12.213 14.338,12.822 12.954,12.975 C12.954,12.975 12.408,11.197 12.408,11.197 Z" id="path-1" class="cls-2" fill-rule="evenodd"/>
</svg>
