<svg xmlns="http://www.w3.org/2000/svg" xmlns:xlink="http://www.w3.org/1999/xlink" preserveAspectRatio="xMidYMid" width="13" height="12" viewBox="0 0 13 12">
  <defs>
    <style>

      .cls-2 {
        fill: #c9c9c9;
      }
    </style>
  </defs>
  <path d="M7.604,-0.014 C7.604,-0.014 7.604,1.072 7.604,1.072 C7.604,1.072 1.093,1.072 1.093,1.072 C1.093,1.072 1.093,10.116 1.093,10.116 C1.093,10.116 7.604,10.116 7.604,10.116 C7.604,10.116 7.604,11.201 7.604,11.201 C7.604,11.201 0.008,11.201 0.008,11.201 C0.008,11.201 0.008,-0.014 0.008,-0.014 C0.008,-0.014 7.604,-0.014 7.604,-0.014 C7.604,-0.014 7.604,-0.014 7.604,-0.014 ZM9.526,3.147 C9.553,3.155 9.586,3.172 9.615,3.200 C9.615,3.200 12.579,5.415 12.579,5.415 C12.694,5.529 12.694,5.658 12.579,5.772 C12.579,5.772 9.615,7.987 9.615,7.987 C9.500,8.101 9.383,8.051 9.383,7.879 C9.383,7.879 9.383,6.450 9.383,6.450 C9.383,6.450 3.426,6.345 3.426,6.345 C3.426,6.345 3.426,4.845 3.426,4.845 C3.426,4.845 9.383,4.736 9.383,4.736 C9.383,4.736 9.383,3.307 9.383,3.307 C9.383,3.179 9.445,3.123 9.526,3.147 Z" id="path-1" class="cls-2" fill-rule="evenodd"/>
</svg>
