<svg xmlns="http://www.w3.org/2000/svg" xmlns:xlink="http://www.w3.org/1999/xlink" preserveAspectRatio="xMidYMid" width="38" height="38" viewBox="0 0 38 38">
  <defs>
    <style>

      .cls-2 {
        fill: #ffffff;
        filter: url(#outer-glow-1);
      }
    </style>

    <filter id="outer-glow-1" filterUnits="userSpaceOnUse">
      <feGaussianBlur stdDeviation="3" in="SourceAlpha"/>
      <feComposite/>
      <feComposite/>
      <feComposite result="outerGlowBlur"/>
      <feFlood flood-color="#ffffff" flood-opacity="0.15"/>
      <feComposite operator="in" in2="outerGlowBlur"/>
      <feComposite in="SourceGraphic" result="outerGlow"/>
    </filter>
  </defs>
  <path d="M24.571,20.119 C24.571,20.119 24.571,22.771 24.571,22.771 C24.571,22.771 23.844,23.582 23.844,23.582 C23.844,23.582 25.377,28.650 25.377,28.650 C25.377,28.650 21.634,26.045 21.634,26.045 C21.634,26.045 19.014,28.965 19.014,28.965 C19.014,28.965 16.381,26.034 16.381,26.034 C16.381,26.034 12.623,28.650 12.623,28.650 C12.623,28.650 14.161,23.564 14.161,23.564 C14.161,23.564 13.449,22.771 13.449,22.771 C13.449,22.771 13.449,20.135 13.449,20.135 C13.449,20.135 8.681,16.520 8.681,16.520 C8.681,16.520 13.449,16.423 13.449,16.423 C13.449,16.423 13.449,15.083 13.449,15.083 C13.449,15.083 16.584,13.116 16.584,13.116 C16.584,13.116 17.576,13.116 17.576,13.116 C17.576,13.116 19.000,9.023 19.000,9.023 C19.000,9.023 20.423,13.116 20.423,13.116 C20.423,13.116 21.444,13.116 21.444,13.116 C21.444,13.116 24.571,15.083 24.571,15.083 C24.571,15.083 24.571,16.423 24.571,16.423 C24.571,16.423 29.319,16.520 29.319,16.520 C29.319,16.520 24.571,20.119 24.571,20.119 ZM23.939,20.598 C23.939,20.598 23.939,16.410 23.939,16.410 C23.939,16.410 23.939,15.585 23.939,15.585 C23.939,15.585 21.270,13.768 21.270,13.768 C21.270,13.768 20.650,13.768 20.650,13.768 C20.650,13.768 17.350,13.768 17.350,13.768 C17.350,13.768 16.759,13.768 16.759,13.768 C16.759,13.768 14.083,15.530 14.083,15.530 C14.083,15.530 14.075,20.609 14.075,20.609 C14.075,20.609 14.072,22.456 14.072,22.456 C14.072,22.456 14.389,22.809 14.389,22.809 C14.389,22.809 16.939,25.646 16.939,25.646 C16.939,25.646 19.004,27.944 19.004,27.944 C19.004,27.944 21.067,25.650 21.067,25.650 C21.067,25.650 23.613,22.819 23.613,22.819 C23.613,22.819 23.939,22.456 23.939,22.456 C23.939,22.456 23.939,20.598 23.939,20.598 ZM20.071,22.165 C20.071,22.165 21.191,21.266 21.191,21.266 C21.191,21.266 21.191,17.069 21.191,17.069 C21.191,17.069 22.983,17.069 22.983,17.069 C22.983,17.069 22.983,22.106 22.983,22.106 C22.983,22.106 21.419,23.573 21.419,23.573 C21.419,23.573 20.071,22.255 20.071,22.255 C20.071,22.255 20.071,22.444 20.071,22.444 C20.071,22.444 17.957,22.444 17.957,22.444 C17.957,22.444 17.957,22.255 17.957,22.255 C17.957,22.255 16.609,23.573 16.609,23.573 C16.609,23.573 15.075,22.106 15.075,22.106 C15.075,22.106 15.075,17.097 15.075,17.097 C15.075,17.097 16.838,17.097 16.838,17.097 C16.838,17.097 16.838,21.266 16.838,21.266 C16.838,21.266 17.957,22.165 17.957,22.165 C17.957,22.165 17.957,16.456 17.957,16.456 C17.957,16.456 15.019,16.456 15.019,16.456 C15.019,16.456 16.380,14.679 16.380,14.679 C16.380,14.679 21.648,14.679 21.648,14.679 C21.648,14.679 23.065,16.456 23.065,16.456 C23.065,16.456 20.071,16.456 20.071,16.456 C20.071,16.456 20.071,22.165 20.071,22.165 ZM20.041,25.621 C20.041,25.621 18.993,26.319 18.993,26.319 C18.993,26.319 17.987,25.621 17.987,25.621 C17.987,25.621 17.987,22.504 17.987,22.504 C17.987,22.504 20.041,22.504 20.041,22.504 C20.041,22.504 20.041,25.621 20.041,25.621 Z" id="path-1" class="cls-2" fill-rule="evenodd"/>
</svg>
